<svg width="171" height="109" viewBox="0 0 171 109" fill="none" xmlns="http://www.w3.org/2000/svg">
<path d="M18.2962 65.8122C18.5788 64.0889 19.2794 62.8807 20.3981 62.1875C21.5167 61.4943 22.7141 61.9381 23.9902 63.519L24.0566 63.6261C24.5875 64.483 25.2574 66.6537 26.0662 70.1383L27.5229 68.7415C29.5697 67.4731 31.571 68.0447 33.5265 70.4563L33.8584 70.9918C35.8052 74.1335 35.607 78.2256 33.2637 83.2682C32.2882 84.5644 31.5148 85.3895 30.9436 85.7435C29.0157 86.9382 26.9897 86.6455 24.8655 84.8654C24.7508 84.5741 24.8197 84.0208 25.0722 83.2056C18.6676 72.2854 15.5604 66.7664 15.7509 66.6484C15.9047 65.993 16.1483 65.5621 16.4815 65.3556C17.2716 65.1954 17.8289 65.3771 18.1534 65.9007L18.2962 65.8122ZM24.023 75.8513L24.1658 75.7628C23.8314 70.8643 23.0969 67.3666 21.9623 65.2698L21.4534 64.4487L21.0964 64.6699C20.5966 64.9796 20.7635 66.7374 21.5971 69.943C22.5802 72.8584 23.3888 74.8278 24.023 75.8513ZM26.7513 77.2241L26.3485 77.7701L25.4117 78.2518L25.456 78.3232L25.6008 78.8758L27.9016 82.5887L28.613 83.976L29.5312 83.7035C31.5543 82.4499 32.6096 79.6877 32.6972 75.4171C32.404 73.7212 31.9845 72.433 31.4388 71.5524C30.7603 70.4575 29.8975 70.2346 28.8503 70.8835L28.7075 70.972C27.565 71.68 26.913 73.764 26.7513 77.2241Z" fill="#8EFE49"/>
<path d="M45.7 59.1475C46.8113 58.6156 47.5784 58.7916 48.0015 59.6756L48.0051 60.5586L51.0962 67.6001C52.5953 70.7318 54.1575 72.3743 55.783 72.5275L56.1307 73.0595C56.4055 73.8282 56.2399 74.3576 55.6337 74.6478L55.4064 74.7566C52.8957 74.3752 51.0057 72.8586 49.7363 70.2067L49.4712 70.3336C49.8149 73.6458 49.267 75.6465 47.8274 76.3356C46.3075 76.5974 45.1607 75.9202 44.387 74.3038C42.6825 70.7427 42.4109 66.5113 43.5724 61.6094C44.1573 60.3671 44.8666 59.5465 45.7 59.1475ZM46.0483 71.6461L46.4045 72.7793L46.7491 73.4991L47.1279 73.3178C46.7615 67.6883 46.3304 64.3558 45.8348 63.3203L45.6832 63.3928C45.0042 65.7356 45.1259 68.4867 46.0483 71.6461Z" fill="#8EFE49"/>
<path d="M61.1382 54.8596L62.6746 54.0421C63.3337 53.8063 63.849 54.0828 64.2205 54.8718C64.4752 55.5836 63.7835 56.3515 62.1454 57.1756C61.3664 58.406 61.2128 59.6803 61.6845 60.9984L62.1515 62.3034C63.7164 65.0146 65.1317 66.1438 66.3971 65.691L66.7925 65.5495C67.5307 65.2853 68.3879 64.1905 69.3642 62.265L69.6015 62.1801C70.1288 61.9914 70.6826 62.2095 71.2631 62.8345C71.2997 64.1002 70.4813 65.5528 68.8079 67.1925C68.4955 67.4828 68.0624 67.727 67.5088 67.9251C64.7934 68.8968 62.2629 67.3934 59.9174 63.4151L59.6061 62.5451C58.5023 59.4607 59.013 56.8988 61.1382 54.8596Z" fill="#8EFE49"/>
<path d="M76.7672 41.5137L77.0124 41.4556C77.3666 41.3718 77.7782 41.5908 78.2471 42.1128L78.7418 44.9306L79.1096 46.4837L80.9669 53.5971L81.1863 53.9768L81.3089 53.9478C82.2224 52.5804 82.7892 50.4176 83.0094 47.4592L83.8408 46.9602C84.6295 46.8885 85.0916 47.1388 85.2271 47.7109C85.6465 49.482 84.9441 52.1661 83.12 55.7632L83.1878 56.0493C87.4618 59.1519 90.1301 60.5773 91.1927 60.3257L91.4379 60.2676L92.3145 59.4126L92.6823 59.3255C93.2545 59.19 93.7671 59.4714 94.2203 60.1698C94.4268 61.0417 93.6015 61.8702 91.7444 62.6553C89.8099 63.1134 86.8251 61.7485 82.7898 58.5606L82.422 58.6478L83.0672 60.8257L83.5705 62.9509C83.6071 63.8342 83.2848 64.3566 82.6036 64.5179C81.802 64.5351 81.3206 64.2031 81.1592 63.5219L81.1012 63.2767L79.8246 58.6154C79.5249 58.6864 79.2205 58.3125 78.9115 57.4937L79.2009 56.3461L76.7779 47.2085L76.352 45.4103C75.7842 43.0126 75.9226 41.7137 76.7672 41.5137Z" fill="#8EFE49"/>
<path d="M102.159 43.7922C103.275 43.6843 105.388 45.4009 108.5 48.942L108.67 49.6406C108.765 50.4188 106.934 51.2487 103.177 52.1303L103.067 52.2706L103.088 52.4374C103.976 54.8676 104.741 56.0437 105.38 55.9657L105.88 55.9047C106.769 55.7961 108 54.6727 109.573 52.5345L109.823 52.504C110.379 52.4362 110.859 52.7866 111.263 53.5553C111.345 54.2224 110.318 55.5183 108.183 57.443C107.616 57.8789 106.912 58.2328 106.07 58.5048C103.819 58.7795 101.991 56.8588 100.586 52.7426C99.2838 52.7041 98.5801 52.254 98.475 51.3924C98.4004 50.781 98.8237 50.3203 99.7449 50.0104L99.7653 50.1772L100.162 49.9595L100.035 48.9173C99.6446 45.721 100.353 44.0126 102.159 43.7922ZM102.776 46.7634L102.401 46.8091L102.422 48.3721L102.58 49.6645L102.747 49.6441C104.296 49.3986 105.054 49.1369 105.02 48.8589C104.165 47.8632 103.417 47.1646 102.776 46.7634Z" fill="#8EFE49"/>
<path d="M124.408 40.6265C126.172 40.6083 127.235 41.8294 127.596 44.2898L127.6 44.6678C127.628 47.3836 126.254 49.89 123.477 52.1867C125.118 53.7659 127.968 54.5345 132.028 54.4926C132.646 54.6823 132.958 55.1131 132.965 55.785C132.973 56.541 132.487 56.924 131.507 56.9341C128.763 56.9624 125.872 56.2922 122.834 54.9235L122.846 56.1414C122.876 59.0253 122.275 60.4736 121.043 60.4863C120.175 60.4952 119.724 58.8338 119.689 55.502L119.656 52.2262L119.517 51.0515L119.798 49.7046L119.462 45.6758L119.46 45.5078C119.452 44.7519 119.839 44.2298 120.62 43.9418C121.69 41.7466 122.952 40.6415 124.408 40.6265ZM122.403 49.8457C123.215 49.8373 124.11 48.372 125.088 45.4497L125.069 43.6438L124.56 43.1031L124.182 43.107C122.958 43.9596 122.366 46.2059 122.403 49.8457Z" fill="#8EFE49"/>
<path d="M150.002 41.3464C150.755 41.4203 151.146 42.7389 151.175 45.3021C150.828 45.9713 150.334 46.2744 149.693 46.2114C149.255 46.084 148.86 45.5246 148.507 44.5333L147.78 44.2086C146.47 44.0798 145.201 44.8272 143.972 46.4507L143.935 46.8269C143.894 47.2449 145.79 48.1347 149.623 49.4963C151.171 50.6333 151.877 51.8984 151.74 53.2917C151.515 55.5767 149.484 57.3464 145.647 58.601L144.076 58.6997C141.76 58.2187 140.705 56.9333 140.91 54.8434L140.922 54.718C140.988 54.0492 141.458 53.7015 142.333 53.675C143.002 53.7408 143.379 54.4813 143.465 55.8965L143.775 56.1801L144.486 56.25C146.074 56.4062 147.658 55.4647 149.237 53.4254L149.29 52.882C149.372 52.0461 147.624 51.0863 144.045 50.0029C142.199 49.0336 141.344 47.8523 141.481 46.459C141.659 44.6478 143.345 43.0973 146.539 41.8076C147.893 41.7719 149.047 41.6182 150.002 41.3464Z" fill="#8EFE49"/>
</svg>
