<svg width="1368" height="101" viewBox="0 0 1368 101" fill="none" xmlns="http://www.w3.org/2000/svg">
<path d="M0.5 87V62.0207C0.5 54.8898 3.73789 48.1446 9.30192 43.6845L56.7337 5.66379C60.9034 2.3214 66.0878 0.5 71.4318 0.5H1354C1361.46 0.5 1367.5 6.54415 1367.5 14V40.6287C1367.5 46.8208 1365.06 52.7627 1360.7 57.1629L1324.69 93.5341C1320.27 97.9919 1314.26 100.5 1307.99 100.5H14C6.54414 100.5 0.5 94.4558 0.5 87Z" fill="#161616"/>
<path d="M0.5 87V62.0207C0.5 54.8898 3.73789 48.1446 9.30192 43.6845L56.7337 5.66379C60.9034 2.3214 66.0878 0.5 71.4318 0.5H1354C1361.46 0.5 1367.5 6.54415 1367.5 14V40.6287C1367.5 46.8208 1365.06 52.7627 1360.7 57.1629L1324.69 93.5341C1320.27 97.9919 1314.26 100.5 1307.99 100.5H14C6.54414 100.5 0.5 94.4558 0.5 87Z" stroke="url(#paint0_radial_522_521)"/>
<path d="M0.5 87V62.0207C0.5 54.8898 3.73789 48.1446 9.30192 43.6845L56.7337 5.66379C60.9034 2.3214 66.0878 0.5 71.4318 0.5H1354C1361.46 0.5 1367.5 6.54415 1367.5 14V40.6287C1367.5 46.8208 1365.06 52.7627 1360.7 57.1629L1324.69 93.5341C1320.27 97.9919 1314.26 100.5 1307.99 100.5H14C6.54414 100.5 0.5 94.4558 0.5 87Z" stroke="url(#paint1_radial_522_521)"/>
<defs>
<radialGradient id="paint0_radial_522_521" cx="0" cy="0" r="1" gradientUnits="userSpaceOnUse" gradientTransform="translate(1342.5 79) rotate(-130.815) scale(43.6033 590.588)">
<stop stop-color="#8EFE49"/>
<stop offset="1" stop-color="#8EFE49" stop-opacity="0"/>
</radialGradient>
<radialGradient id="paint1_radial_522_521" cx="0" cy="0" r="1" gradientUnits="userSpaceOnUse" gradientTransform="translate(33.5 24.5) rotate(50.5275) scale(22.0227 298.288)">
<stop stop-color="#8EFE49"/>
<stop offset="1" stop-color="#8EFE49" stop-opacity="0"/>
</radialGradient>
</defs>
</svg>
